{"title":"The River Wild (1994) BRrip 720p x264 Dual Audio [Eng DD 5.1-Hin","uid":10432785,"size":1809870417,"categoryP":"video","categoryS":"hd___movies","magnet":"?xt=urn:btih:7e34aa523c6f7c6272ade17fe658de436e78a0fa&amp;dn=The+River+Wild+%281994%29+BRrip+720p+x264+Dual+Audio+%5BEng+DD+5.1-Hin&amp;tr=udp%3A%2F%2Ftracker.openbittorrent.com%3A80&amp;tr=udp%3A%2F%2Fopen.demonii.com%3A1337&amp;tr=udp%3A%2F%2Ftracker.coppersurfer.tk%3A6969&amp;tr=udp%3A%2F%2Fexodus.desync.com%3A6969","seeders":4,"leechers":5,"uploader":"Xdesiars","files":4,"time":1403815656,"description":"Format                                   : Matroska\nFormat version                           : Version 2\nFile size                                : 1.66 GiB\nDuration                                 : 1h 51mn\nOverall bit rate                         : 2 135 Kbps\nMovie name                               : The River Wild (1994) by XdesiArsenal [ExD-XMR]\nEncoded date                             : UTC 2014-06-26 17:27:11\nWriting application                      : mkvmerge v5.0.1 ('Es ist Sommer') built on Nov 23 2011 20:48:57\nWriting library                          : libebml v1.2.2 + libmatroska v1.3.0\n\nVideo\nID                                       : 1\nFormat                                   : AVC\nFormat/Info                              : Advanced Video Codec\nFormat profile                           : &lt;a class=&quot;__cf_email__&quot; href=&quot;/cdn-cgi/l/email-protection&quot; data-cfemail=&quot;90ddf1f9fed0dca3bea1&quot;&gt;[email&amp;#160;protected]&lt;/a&gt;&lt;script cf-hash='f9e31' type=&quot;text/javascript&quot;&gt;\n/* &lt;![CDATA[ */!function(){try{var t=&quot;currentScript&quot;in document?document.currentScript:function(){for(var t=document.getElementsByTagName(&quot;script&quot;),e=t.length;e--;)if(t[e].getAttribute(&quot;cf-hash&quot;))return t[e]}();if(t&amp;&amp;t.previousSibling){var e,r,n,i,c=t.previousSibling,a=c.getAttribute(&quot;data-cfemail&quot;);if(a){for(e=&quot;&quot;,r=parseInt(a.substr(0,2),16),n=2;a.length-n;n+=2)i=parseInt(a.substr(n,2),16)^r,e+=String.fromCharCode(i);e=document.createTextNode(e),c.parentNode.replaceChild(e,c)}}}catch(u){}}();/* ]]&gt; */&lt;/script&gt;\nFormat settings, CABAC                   : Yes\nFormat settings, ReFrames                : 4 frames\nMuxing mode                              : Header stripping\nCodec ID                                 : V_MPEG4/ISO/AVC\nDuration                                 : 1h 51mn\nBit rate                                 : 1 837 Kbps\nWidth                                    : 1 280 pixels\nHeight                                   : 544 pixels\nDisplay aspect ratio                     : 2.35:1\nFrame rate mode                          : Constant\nFrame rate                               : 23.976 fps\nColor space                              : YUV\nChroma subsampling                       : 4:2:0\nBit depth                                : 8 bits\nScan type                                : Progressive\nBits/(Pixel*Frame)                       : 0.110\nStream size                              : 1.43 GiB (86%)\nTitle                                    : The River Wild (1994) by XdesiArsenal [ExD-XMR]\nWriting library                          : x264 core 112\nLanguage                                 : English\nDefault                                  : No\nForced                                   : No\nColor primaries                          : BT.709\nTransfer characteristics                 : BT.709\nMatrix coefficients                      : BT.709\n\nAudio #1\nID                                       : 2\nFormat                                   : AC-3\nFormat/Info                              : Audio Coding 3\nMode extension                           : CM (complete main)\nFormat settings, Endianness              : Big\nMuxing mode                              : Header stripping\nCodec ID                                 : A_AC3\nDuration                                 : 1h 51mn\nBit rate mode                            : Constant\nBit rate                                 : 128 Kbps\nChannel(s)                               : 2 channels\nChannel positions                        : Front: L R\nSampling rate                            : 44.1 KHz\nBit depth                                : 16 bits\nCompression mode                         : Lossy\nDelay relative to video                  : 4s 0ms\nStream size                              : 102 MiB (6%)\nTitle                                    : XdesiArsenal\nLanguage                                 : Hindi\nDefault                                  : No\nForced                                   : No\n\nAudio #2\nID                                       : 3\nFormat                                   : AC-3\nFormat/Info                              : Audio Coding 3\nMode extension                           : CM (complete main)\nFormat settings, Endianness              : Big\nMuxing mode                              : Header stripping\nCodec ID                                 : A_AC3\nDuration                                 : 1h 51mn\nBit rate mode                            : Constant\nBit rate                                 : 128 Kbps\nChannel(s)                               : 6 channels\nChannel positions                        : Front: L C R, Side: L R, LFE\nSampling rate                            : 48.0 KHz\nBit depth                                : 16 bits\nCompression mode                         : Lossy\nStream size                              : 102 MiB (6%)\nTitle                                    : XdesiArsenal\nLanguage                                 : English\nDefault                                  : Yes\nForced                                   : No\n\nMenu\n00:00:00.000                             : en:Chapter 1\n00:07:19.481                             : en:Chapter 2\n00:10:34.176                             : en:Chapter 3\n00:22:46.935                             : en:Chapter 4\n00:24:33.334                             : en:Chapter 5\n00:33:44.135                             : en:Chapter 6\n00:40:26.329                             : en:Chapter 7\n00:47:22.495                             : en:Chapter 8\n00:57:27.697                             : en:Chapter 9\n01:06:46.604                             : en:Chapter 10\n01:21:06.356                             : en:Chapter 11\n01:28:06.320                             : en:Chapter 12\n01:34:24.823                             : en:Chapter 13\n01:41:05.271                             : en:Chapter 14\n01:43:05.349                             : en:Chapter 15\n01:47:13.806                             : en:Chapter 16\n","torrent":{"xt":"urn:btih:7e34aa523c6f7c6272ade17fe658de436e78a0fa","amp;dn":"The+River+Wild+%281994%29+BRrip+720p+x264+Dual+Audio+%5BEng+DD+5.1-Hin","amp;tr":["udp%3A%2F%2Ftracker.openbittorrent.com%3A80","udp%3A%2F%2Fopen.demonii.com%3A1337","udp%3A%2F%2Ftracker.coppersurfer.tk%3A6969","udp%3A%2F%2Fexodus.desync.com%3A6969"],"infoHash":"7e34aa523c6f7c6272ade17fe658de436e78a0fa","infoHashBuffer":{"type":"Buffer","data":[126,52,170,82,60,111,124,98,114,173,225,127,230,88,222,67,110,120,160,250]},"announce":[],"urlList":[]}}